<svg height="3.223969mm" viewBox="0 0 3.241272 3.2239685" width="3.241272mm" xmlns="http://www.w3.org/2000/svg"><path d="m144.10626 192.00068-.40184.85145-.39612-.21775.0754.46111-.89841.13664.65013.66309-.32012.32664.44244.0675-.15355.93529.80368-.44151.19831.41919.1978-.41919.80369.44151-.15303-.93529.44244-.0675-.32012-.32664.64961-.66309-.8979-.13664.0754-.46111-.39611.21775zm-.70479 1.15578h.61786v.64512h-.61786zm.80057 0h.61785v.64512h-.61785zm-.80057.81824h.61786v.64567h-.61786zm.80057 0h.61785v.64567h-.61785z" fill="#8da5f3" stroke-dashoffset="168.617" stroke-width="1.64147" transform="translate(-142.48529 -192.00068)"/></svg>